<?xml version="1.0" encoding="UTF-8"?>
<svg version="1.1" xmlns="http://www.w3.org/2000/svg" width="754" height="215">
<path d="M0 0 C248.82 0 497.64 0 754 0 C754 70.95 754 141.9 754 215 C505.18 215 256.36 215 0 215 C0 144.05 0 73.1 0 0 Z " fill="#FEFEFE" transform="translate(0,0)"/>
<path d="M0 0 C248.82 0 497.64 0 754 0 C754 0.33 754 0.66 754 1 C721 1 688 1 654 1 C653.34 3.97 652.68 6.94 652 10 C651.30541012 11.95748056 650.60915104 13.91521972 649.84765625 15.84765625 C648.87377172 18.32051513 647.96648236 20.81325466 647.0625 23.3125 C646.72347656 24.24707031 646.38445313 25.18164062 646.03515625 26.14453125 C645.69355469 27.08683594 645.35195313 28.02914063 645 29 C644.33354155 30.83340904 643.66687664 32.66674303 643 34.5 C642.67 35.4075 642.34 36.315 642 37.25 C607 133.5 607 133.5 605.9921875 136.26953125 C605.34987721 138.03714893 604.70914801 139.80534228 604.0703125 141.57421875 C603.42561074 143.35647279 602.7742825 145.13634036 602.1171875 146.9140625 C601.27690707 149.23511684 600.47634204 151.55761603 599.6953125 153.8984375 C595.14042499 167.22179803 588.57134064 177.02711519 575.8046875 183.66015625 C568.16449981 187.21158415 561.4295134 188.96912266 553 189 C554.86749327 179.5069092 558.22978152 170.87878197 561.875 161.9375 C564.49828172 155.49260608 566.76159931 148.95959103 568.90771484 142.34155273 C570.47662925 137.50690291 572.19097938 132.74955962 574 128 C574.64911258 126.23036607 575.29533116 124.4596655 575.9375 122.6875 C576.27652344 121.75292969 576.61554687 120.81835938 576.96484375 119.85546875 C577.30644531 118.91316406 577.64804687 117.97085938 578 117 C578.66645845 115.16659096 579.33312336 113.33325697 580 111.5 C580.33 110.5925 580.66 109.685 581 108.75 C612 23.5 612 23.5 612.9921875 20.7734375 C613.68655498 18.86258125 614.37915967 16.95108383 615.0703125 15.0390625 C615.41835938 14.07742188 615.76640625 13.11578125 616.125 12.125 C616.43695312 11.26132813 616.74890625 10.39765625 617.0703125 9.5078125 C618.00410167 6.98893582 619.00229906 4.49425235 620 2 C452.36 2 284.72 2 112 2 C115.96 2.99 119.92 3.98 124 5 C128.47863078 6.72106694 132.71839915 8.83805587 137 11 C137.96164063 11.47566406 138.92328125 11.95132812 139.9140625 12.44140625 C162.876367 24.31065379 178.12178703 44.60179966 186.25 68.70703125 C193.4753545 92.93892005 189.87915448 119.92297693 178 142 C164.39338935 165.55265875 143.48835465 180.42130481 117.59375 188.0546875 C94.14083365 194.22382419 67.48401163 190.08305169 46.61328125 178.046875 C43.65737421 176.12421076 40.81822159 174.11869155 38 172 C37.02417969 171.26910156 36.04835937 170.53820312 35.04296875 169.78515625 C29.99902076 165.88403284 29.99902076 165.88403284 28 164 C28 163.34 28 162.68 28 162 C27.34 162 26.68 162 26 162 C-14.42915854 117.82740085 0 56.92683159 0 0 Z " fill="#9FC751" transform="translate(0,0)"/>
<path d="M0 0 C3.73770843 3.22802091 6.69119424 6.86314908 8.75 11.375 C8.9140625 14.6640625 8.9140625 14.6640625 8.75 17.375 C9.41644531 16.80652344 10.08289063 16.23804687 10.76953125 15.65234375 C27.24130499 1.85291372 42.84939119 -6.02663896 64.75 -4.625 C72.19585713 -3.76997334 79.00962227 -0.29954457 83.75 5.5625 C88.62118044 14.45697624 86.51259521 26.60750142 83.8972168 35.91503906 C82.6146069 40.10470884 81.2073663 44.2433 79.75 48.375 C79.21849396 49.91527626 78.68723656 51.45563834 78.15625 52.99609375 C77.16532364 55.84535971 76.15522046 58.68673896 75.12890625 61.5234375 C73.55871282 65.8724956 72.12066038 70.26180192 70.70703125 74.6640625 C69.98133099 76.71971956 69.15870764 78.74147188 68.29296875 80.7421875 C66.73550968 84.40911644 65.47183968 88.08416408 64.25 91.875 C63.0426076 95.6210123 61.80223324 99.25325846 60.25 102.87109375 C58.43128045 107.11950895 57.03360012 111.45272931 55.64453125 115.85742188 C54.3068416 119.9940354 52.72723428 123.42053144 50.75 127.375 C39.86 127.375 28.97 127.375 17.75 127.375 C19.94654289 117.49055698 19.94654289 117.49055698 21.90234375 112.52734375 C22.87622828 110.05448487 23.78351764 107.56174534 24.6875 105.0625 C25.19603516 103.66064453 25.19603516 103.66064453 25.71484375 102.23046875 C26.05644531 101.28816406 26.39804687 100.34585938 26.75 99.375 C27.41645845 97.54159096 28.08312336 95.70825697 28.75 93.875 C29.08 92.9675 29.41 92.06 29.75 91.125 C33.25 81.5 33.25 81.5 36.75 71.875 C37.08128906 70.96363281 37.41257812 70.05226563 37.75390625 69.11328125 C38.40671227 67.3187047 39.06032878 65.52442272 39.71484375 63.73046875 C47.12406387 46.52822842 47.12406387 46.52822842 48.75 28.375 C46.22323961 25.02874976 44.71066458 23.69522153 40.75 22.375 C32.23611179 21.43755022 26.02439588 23.14618711 19.2109375 28.29296875 C6.62312281 39.03634534 -1.44864551 54.35123691 -5.6796875 70.2578125 C-6.41856553 73.00077068 -7.41470462 75.60635779 -8.4375 78.25390625 C-9.38992444 80.7402835 -10.28776233 83.24409002 -11.1875 85.75 C-12.45026701 89.24174211 -13.77327018 92.69207116 -15.1875 96.125 C-17.40417333 101.57941271 -19.20009259 107.16102519 -21.00390625 112.76171875 C-21.87341353 115.28301728 -22.77250649 117.65155738 -23.83984375 120.08203125 C-25.37571225 123.42749148 -25.37571225 123.42749148 -26.25 127.375 C-37.47 127.375 -48.69 127.375 -60.25 127.375 C-59.52192441 123.00654646 -58.71471915 119.67204987 -57.1328125 115.6328125 C-56.15157296 113.12327066 -55.22928243 110.59628452 -54.3125 108.0625 C-53.80396484 106.66064453 -53.80396484 106.66064453 -53.28515625 105.23046875 C-52.77275391 103.81701172 -52.77275391 103.81701172 -52.25 102.375 C-51.24791787 99.61829936 -50.24520697 96.86182847 -49.2421875 94.10546875 C-48.59987721 92.33785107 -47.95914801 90.56965772 -47.3203125 88.80078125 C-45.60539063 84.05994351 -43.86217491 79.33106013 -42.08496094 74.61328125 C-30.84857301 50.92982714 -30.84857301 50.92982714 -30.4375 26.5 C-33.07169283 23.41163599 -35.22935221 22.63508338 -39.22265625 22.12109375 C-47.9687054 21.6429147 -54.76848705 24.80043853 -61.375 30.375 C-76.61896182 44.97282843 -82.77737452 66.38968707 -89.07421875 85.97265625 C-90.25 89.375 -90.25 89.375 -91.73828125 92.83984375 C-93.29138868 96.47178749 -94.53853058 100.11633847 -95.75 103.875 C-96.94760842 107.59065689 -98.17263576 111.19558079 -99.71875 114.78125 C-101.46755286 118.88558325 -102.83918949 123.14256848 -104.25 127.375 C-115.47 127.375 -126.69 127.375 -138.25 127.375 C-134.95803991 115.30447966 -134.95803991 115.30447966 -133.0625 110.45703125 C-132.10596549 108.00591157 -131.20830151 105.53645181 -130.3125 103.0625 C-129.97347656 102.12792969 -129.63445312 101.19335938 -129.28515625 100.23046875 C-128.94355469 99.28816406 -128.60195313 98.34585938 -128.25 97.375 C-127.58354155 95.54159096 -126.91687664 93.70825697 -126.25 91.875 C-125.755 90.51375 -125.755 90.51375 -125.25 89.125 C-122.25 80.875 -122.25 80.875 -121.2421875 78.109375 C-120.59651045 76.32995006 -119.9556268 74.54877606 -119.3203125 72.765625 C-116.93481729 66.10201028 -114.35163721 59.52639172 -111.69140625 52.96875 C-110.81826191 50.79180476 -109.96575133 48.60621357 -109.15234375 46.40625 C-106.82651456 40.15381848 -104.35476236 35.93186312 -99.125 31.625 C-96.31477268 30.40316204 -94.07289302 29.96574294 -91.0625 29.5 C-80.36942712 27.68688884 -73.42690266 22.09860348 -65.4921875 15.1640625 C-58.67894416 9.23439266 -51.53436633 4.01941008 -43.25 0.375 C-42.13625 -0.16125 -41.0225 -0.6975 -39.875 -1.25 C-26.66876809 -6.25926038 -12.70825674 -6.35412837 0 0 Z " fill="#88929B" transform="translate(445.25,61.625)"/>
<path d="M0 0 C7.01651744 6.3327043 9.40006397 14.040742 10.1953125 23.265625 C10.49601993 30.28213167 9.51403154 36.98692493 8.3125 43.875 C8.16401611 44.75929687 8.01553223 45.64359375 7.86254883 46.5546875 C6.37205239 54.57785856 3.83969357 61.04885801 1 69 C-28.7 69 -58.4 69 -89 69 C-90.1456756 83.32460961 -90.1456756 83.32460961 -84 94 C-77.31834226 100.51033318 -69.85901492 100.32198479 -61.0390625 100.4140625 C-59.89335785 100.43342865 -58.7476532 100.4527948 -57.56723022 100.4727478 C-53.91989509 100.53236785 -50.2725281 100.57885918 -46.625 100.625 C-44.14712191 100.6631959 -41.66925686 100.70224857 -39.19140625 100.7421875 C-33.12772028 100.83805503 -27.06395526 100.92315385 -21 101 C-21.47749881 102.59611375 -21.95535017 104.19212204 -22.43334961 105.78808594 C-22.69941513 106.67687439 -22.96548065 107.56566284 -23.23960876 108.48138428 C-25.58145972 116.23821047 -25.58145972 116.23821047 -29.01123047 118.08007812 C-31.62450461 119.10978614 -34.24563464 119.94864805 -36.9375 120.75 C-37.82501953 121.04003906 -38.71253906 121.33007812 -39.62695312 121.62890625 C-59.81527668 127.99498668 -84.27961686 129.49534417 -103.9453125 120.6796875 C-112.36375321 116.0809572 -118.37717452 109.57273285 -121.34375 100.37890625 C-123.63255921 88.59426359 -122.48363842 76.40997361 -119 65 C-118.67128906 63.82308594 -118.34257813 62.64617187 -118.00390625 61.43359375 C-110.12126951 35.27633203 -91.79143296 13.27446042 -68.40625 -0.53125 C-48.46716874 -11.1481634 -18.85912152 -14.55432204 0 0 Z " fill="#88929B" transform="translate(734,66)"/>
<path d="M0 0 C-3.8319281 8.56657004 -12.70228423 12.5227211 -21.02270508 15.7956543 C-29.84745155 18.86747305 -38.79267062 18.43490786 -48.03320312 18.43945312 C-58.70994065 18.59543569 -66.27510463 20.46351671 -74 28 C-76.29862344 31.2389694 -76.48956596 34.08347229 -76 38 C-73.20146872 41.40008473 -70.44001763 42.91260525 -66.375 44.5 C-65.31539063 44.92410156 -64.25578125 45.34820312 -63.1640625 45.78515625 C-61.20612837 46.53690627 -59.2433854 47.27641364 -57.2734375 47.99609375 C-50.06863046 50.6839552 -43.47280168 53.86010617 -39.5 60.75 C-36.47138921 67.93446236 -37.49110101 74.25120614 -40.0625 81.4375 C-49.29650193 103.47494998 -65.32814461 115.08961815 -86.609375 124.10546875 C-88.72754768 124.86692864 -90.812394 125.47195717 -93 126 C-93.80308594 126.20238281 -94.60617187 126.40476563 -95.43359375 126.61328125 C-111.06440302 129.87247127 -127.5861752 128.71745186 -143 125 C-143.91007813 124.78730469 -144.82015625 124.57460937 -145.7578125 124.35546875 C-147.5119763 123.93067996 -149.25789711 123.47181953 -151 123 C-149.39978312 118.78636358 -147.46113464 114.77223463 -145.4375 110.75 C-144.96280273 109.79480469 -144.96280273 109.79480469 -144.47851562 108.8203125 C-142.12673241 104.12673241 -142.12673241 104.12673241 -141 103 C-137.94323473 102.88888315 -134.90530937 102.8383032 -131.84765625 102.82421875 C-129.93683825 102.80099526 -128.02603095 102.77687695 -126.11523438 102.75195312 C-123.10043449 102.71701946 -120.08602133 102.68760558 -117.07104492 102.67407227 C-114.16276634 102.65845831 -111.2556282 102.61813582 -108.34765625 102.57421875 C-107.01892235 102.57708138 -107.01892235 102.57708138 -105.66334534 102.58000183 C-97.37236437 102.42044465 -88.9258683 100.09517882 -83 94 C-79.99853448 90.18980627 -78.17939514 87.07637087 -77.375 82.25 C-78.18399194 78.04324193 -79.53728644 77.40279708 -83 75 C-85.79004858 73.57996947 -85.79004858 73.57996947 -88.75 72.4375 C-89.801875 72.01210937 -90.85375 71.58671875 -91.9375 71.1484375 C-94.52688095 70.17741964 -97.09995224 69.34463215 -99.75 68.5625 C-105.78491651 66.60197359 -110.93268041 63.0571702 -114.5 57.75 C-117.4414128 51.80180967 -116.52228351 45.27680306 -114.875 39.0625 C-108.94067592 21.56034604 -96.30727224 9.42916599 -80.3125 0.75 C-73.18131109 -2.68007383 -65.68595005 -4.31220692 -58 -6 C-57.35820801 -6.176521 -56.71641602 -6.35304199 -56.05517578 -6.53491211 C-38.03309615 -10.61332286 -17.28948799 -5.02364179 0 0 Z " fill="#88929B" transform="translate(357,64)"/>
<path d="M0 0 C10.89 0 21.78 0 33 0 C31.87860697 8.97114428 31.87860697 8.97114428 30.6875 11.8125 C30.42195312 12.4725 30.15640625 13.1325 29.8828125 13.8125 C29.59148437 14.534375 29.30015625 15.25625 29 16 C28.34762099 17.76843236 27.70221003 19.53944544 27.0625 21.3125 C26.55396484 22.71435547 26.55396484 22.71435547 26.03515625 24.14453125 C25.69355469 25.08683594 25.35195313 26.02914063 25 27 C24.33354155 28.83340904 23.66687664 30.66674303 23 32.5 C22.67 33.4075 22.34 34.315 22 35.25 C-13 131.5 -13 131.5 -14.0078125 134.26953125 C-14.65012279 136.03714893 -15.29085199 137.80534228 -15.9296875 139.57421875 C-16.57438926 141.35647279 -17.2257175 143.13634036 -17.8828125 144.9140625 C-18.72309293 147.23511684 -19.52365796 149.55761603 -20.3046875 151.8984375 C-24.85957501 165.22179803 -31.42865936 175.02711519 -44.1953125 181.66015625 C-51.83550019 185.21158415 -58.5704866 186.96912266 -67 187 C-65.13250673 177.5069092 -61.77021848 168.87878197 -58.125 159.9375 C-55.50171828 153.49260608 -53.23840069 146.95959103 -51.09228516 140.34155273 C-49.52337075 135.50690291 -47.80902062 130.74955962 -46 126 C-45.35088742 124.23036607 -44.70466884 122.4596655 -44.0625 120.6875 C-43.72347656 119.75292969 -43.38445313 118.81835938 -43.03515625 117.85546875 C-42.69355469 116.91316406 -42.35195313 115.97085938 -42 115 C-41.33354155 113.16659096 -40.66687664 111.33325697 -40 109.5 C-39.67 108.5925 -39.34 107.685 -39 106.75 C-8 21.5 -8 21.5 -7.0078125 18.7734375 C-6.31344502 16.86258125 -5.62084033 14.95108383 -4.9296875 13.0390625 C-4.58164062 12.07742188 -4.23359375 11.11578125 -3.875 10.125 C-3.56304688 9.26132813 -3.25109375 8.39765625 -2.9296875 7.5078125 C-1.99589833 4.98893582 -0.99770094 2.49425235 0 0 Z " fill="#88929B" transform="translate(620,2)"/>
<path d="M0 0 C11.22 0 22.44 0 34 0 C33.01 2.97 32.02 5.94 31 9 C30.5771875 10.28003906 30.154375 11.56007813 29.71875 12.87890625 C25.84060603 24.60034779 25.84060603 24.60034779 23.7421875 30.05859375 C22.10164587 34.34990528 20.56572573 38.68096034 19 43 C18.33354155 44.83340904 17.66687664 46.66674303 17 48.5 C16.67 49.4075 16.34 50.315 16 51.25 C1 92.5 1 92.5 -0.015625 95.28515625 C-0.6369954 96.99885635 -1.25239728 98.71474319 -1.859375 100.43359375 C-5.28612016 110.06755713 -9.18110207 119.51640346 -13 129 C-23.89 129 -34.78 129 -46 129 C-44.22604198 121.90416791 -42.63684144 115.6428121 -40 109 C-39.34887342 107.23110612 -38.7034434 105.46010908 -38.0625 103.6875 C-37.72347656 102.75292969 -37.38445313 101.81835938 -37.03515625 100.85546875 C-36.69355469 99.91316406 -36.35195313 98.97085938 -36 98 C-35.33354155 96.16659096 -34.66687664 94.33325697 -34 92.5 C-33.505 91.13875 -33.505 91.13875 -33 89.75 C-10 26.5 -10 26.5 -9 23.75390625 C-8.32999037 21.90876256 -7.66335476 20.0623904 -7 18.21484375 C-6.67 17.29832031 -6.34 16.38179687 -6 15.4375 C-5.71125 14.63183594 -5.4225 13.82617188 -5.125 12.99609375 C-3.48805335 8.63658653 -1.72945666 4.32364166 0 0 Z " fill="#88929B" transform="translate(554,60)"/>
<path d="M0 0 C27.39 0 54.78 0 83 0 C83 0.33 83 0.66 83 1 C82.01 1.18175781 81.02 1.36351562 80 1.55078125 C78.66659594 1.80431582 77.33326655 2.05824329 76 2.3125 C75.35160156 2.43044922 74.70320313 2.54839844 74.03515625 2.66992188 C59.98286201 5.38298858 45.67895827 12.54781471 35 22 C34.18144531 22.68835938 33.36289062 23.37671875 32.51953125 24.0859375 C14.95667861 39.23090876 3.19043172 60.78142372 1 84 C0.67 84 0.34 84 0 84 C0 56.28 0 28.56 0 0 Z " fill="#FEFEFD" transform="translate(0,1)"/>
<path d="M0 0 C3.53732816 2.27961148 6.10486092 4.57711034 7.40234375 8.67578125 C7.85089658 11.01252788 7.98105556 13.18307883 8 15.5625 C8.01417969 16.36171875 8.02835938 17.1609375 8.04296875 17.984375 C7.8125 20.8125 7.8125 20.8125 5.8125 28.8125 C-12.9975 28.8125 -31.8075 28.8125 -51.1875 28.8125 C-46.2978841 16.58846026 -37.32037989 6.19099315 -25.1875 0.8125 C-17.68124859 -2.16285696 -7.67694158 -2.9372646 0 0 Z " fill="#FDFDFD" transform="translate(705.1875,83.1875)"/>
<path d="M0 0 C1.64935547 0.03383789 1.64935547 0.03383789 3.33203125 0.06835938 C6.01449836 0.12667388 8.69398433 0.20844816 11.375 0.3125 C9.53530453 10.42346628 2.95740764 18.36376754 -5.28125 24.19140625 C-13.68779263 29.48974036 -22.59554254 32.62649775 -32.625 32.3125 C-31.46068894 26.39506025 -29.97118428 20.86925223 -27.625 15.3125 C-27.31046875 14.47203125 -26.9959375 13.6315625 -26.671875 12.765625 C-26.30578125 11.89421875 -25.9396875 11.0228125 -25.5625 10.125 C-25.24152344 9.32707031 -24.92054688 8.52914063 -24.58984375 7.70703125 C-18.26156817 -0.00516146 -9.28656688 -0.36672348 0 0 Z " fill="#B1D239" transform="translate(590.625,18.6875)"/>
<path d="M0 0 C4.04347354 0.68227345 7.29940696 2.7581571 10.8125 4.75 C24.49208985 12.29018451 37.55177908 15.18783145 53.125 15.25 C55.02765625 15.2809375 55.02765625 15.2809375 56.96875 15.3125 C64.81888174 15.34487168 71.58078296 14.58197828 79 12 C79.68594238 11.76490723 80.37188477 11.52981445 81.07861328 11.28759766 C82.90151597 10.62973275 84.70159418 9.90964747 86.5 9.1875 C87.12801514 8.93540771 87.75603027 8.68331543 88.40307617 8.42358398 C93.47253529 6.33691756 98.21531233 3.81328906 102.92578125 1.00390625 C103.61027344 0.67261719 104.29476562 0.34132812 105 0 C105.99 0.495 105.99 0.495 107 1 C97.42672131 14.08928286 81.5085421 20.77607753 66 24 C61.84314816 24.39571573 57.73548346 24.42128078 53.5625 24.375 C52.52029297 24.38660156 51.47808594 24.39820313 50.40429688 24.41015625 C39.82108883 24.37078908 30.1899722 22.1749809 20.8125 17.25 C20.13541992 16.90146973 19.45833984 16.55293945 18.76074219 16.19384766 C11.04684441 12.11882499 4.34217697 7.74040242 0 0 Z " fill="#FAFCF6" transform="translate(41,138)"/>
<path d="M0 0 C5.28974766 2.75822556 9.11571551 6.22937874 11 12 C11.56138108 17.23955679 10.85632372 20.56777353 8 25 C5.78218615 27.47873312 4.19297407 28.78389749 0.88671875 29.3828125 C-3.08789214 29.58321305 -5.65326947 29.15701005 -9.3125 27.5 C-13.73021641 23.39049636 -16.1724146 18.90946426 -16.4375 12.8125 C-15.84468477 7.64653875 -14.32206375 5.39761025 -10.8125 1.6875 C-7.12617534 -0.52429479 -4.12426487 -1.00074074 0 0 Z " fill="#FCFDF9" transform="translate(63,78)"/>
<path d="M0 0 C3.44634 2.39407635 5.55302709 5.06311738 6.50390625 9.18359375 C6.80518665 14.79129663 5.28464152 19.46699005 2 24 C-1.35067805 27.11690982 -4.01123489 28.26827842 -8.5 28.5625 C-13.48050066 28.3437618 -15.65226731 26.59881265 -19 23 C-20.92962772 17.21111685 -20.96580594 11.12477307 -18.4375 5.5625 C-13.09433842 -0.05466986 -7.71804743 -2.83833991 0 0 Z " fill="#FDFDFA" transform="translate(135,79)"/>
<path d="M0 0 C-0.5625 1.875 -0.5625 1.875 -2 4 C-8.09457318 6.5934354 -15.99864222 7.58948582 -22.26171875 5.1015625 C-24.1875 4 -24.1875 4 -27 2 C-27 1.67 -27 1.34 -27 1 C-22.87502594 0.83268714 -18.75001667 0.66625884 -14.625 0.5 C-13.449375 0.45230469 -12.27375 0.40460938 -11.0625 0.35546875 C-9.94101563 0.31035156 -8.81953125 0.26523438 -7.6640625 0.21875 C-6.62717285 0.17685547 -5.5902832 0.13496094 -4.52197266 0.09179688 C-3.01533561 0.03695704 -1.50763477 0 0 0 Z " fill="#B7D446" transform="translate(109,161)"/>
<path d="M0 0 C5.94 0 11.88 0 18 0 C14 3 14 3 11.81640625 3.109375 C11.07261719 2.99078125 10.32882813 2.8721875 9.5625 2.75 C8.78132813 2.63269531 8.00015625 2.51539063 7.1953125 2.39453125 C2.20049813 1.49688667 2.20049813 1.49688667 0 1 C0 0.67 0 0.34 0 0 Z " fill="#C5DC6B" transform="translate(87,162)"/>
</svg>
